<mxfile host="Electron" modified="2023-11-25T15:20:10.532Z" agent="Mozilla/5.0 (X11; Linux x86_64) AppleWebKit/537.36 (KHTML, like Gecko) draw.io/22.1.2 Chrome/114.0.5735.289 Electron/25.9.4 Safari/537.36" etag="GdYNTtnS8R7jcnAUKfUf" version="22.1.2" type="device">
  <diagram name="Page-1" id="cu8HoAJBPppChcAsw30A">
    <mxGraphModel dx="1886" dy="2723" grid="1" gridSize="10" guides="1" tooltips="1" connect="1" arrows="1" fold="1" page="1" pageScale="1" pageWidth="1169" pageHeight="827" math="0" shadow="0">
      <root>
        <mxCell id="0" />
        <mxCell id="1" parent="0" />
        <mxCell id="16uS1jDzF8tA2ArOGYMF-19" style="edgeStyle=orthogonalEdgeStyle;rounded=1;orthogonalLoop=1;jettySize=auto;html=1;exitX=1;exitY=0.5;exitDx=0;exitDy=0;entryX=0;entryY=0.5;entryDx=0;entryDy=0;strokeColor=default;jumpStyle=arc;" edge="1" parent="1" source="16uS1jDzF8tA2ArOGYMF-13" target="0N0rDKjKPEKVKHD4B6wy-109">
          <mxGeometry relative="1" as="geometry">
            <Array as="points">
              <mxPoint x="2320" y="-630" />
              <mxPoint x="2320" y="-900" />
              <mxPoint x="1360" y="-900" />
              <mxPoint x="1360" y="-940" />
              <mxPoint x="910" y="-940" />
              <mxPoint x="910" y="-980" />
            </Array>
          </mxGeometry>
        </mxCell>
        <mxCell id="0N0rDKjKPEKVKHD4B6wy-39" style="edgeStyle=orthogonalEdgeStyle;rounded=1;orthogonalLoop=1;jettySize=auto;html=1;exitX=0.5;exitY=1;exitDx=0;exitDy=0;entryX=0;entryY=0.5;entryDx=0;entryDy=0;" parent="1" source="0N0rDKjKPEKVKHD4B6wy-30" target="0N0rDKjKPEKVKHD4B6wy-32" edge="1">
          <mxGeometry relative="1" as="geometry">
            <mxPoint x="690" y="-660" as="sourcePoint" />
            <Array as="points">
              <mxPoint x="670" y="-670" />
              <mxPoint x="550" y="-670" />
              <mxPoint x="550" y="-330" />
            </Array>
          </mxGeometry>
        </mxCell>
        <mxCell id="0N0rDKjKPEKVKHD4B6wy-130" style="edgeStyle=orthogonalEdgeStyle;rounded=1;orthogonalLoop=1;jettySize=auto;html=1;exitX=0.75;exitY=0;exitDx=0;exitDy=0;entryX=0;entryY=0.5;entryDx=0;entryDy=0;jumpStyle=arc;" parent="1" source="0N0rDKjKPEKVKHD4B6wy-71" target="0N0rDKjKPEKVKHD4B6wy-109" edge="1">
          <mxGeometry relative="1" as="geometry">
            <Array as="points">
              <mxPoint x="1710" y="-860" />
              <mxPoint x="1340" y="-860" />
              <mxPoint x="1340" y="-1030" />
              <mxPoint x="910" y="-1030" />
              <mxPoint x="910" y="-980" />
            </Array>
          </mxGeometry>
        </mxCell>
        <mxCell id="0N0rDKjKPEKVKHD4B6wy-124" style="edgeStyle=orthogonalEdgeStyle;rounded=1;orthogonalLoop=1;jettySize=auto;html=1;exitX=1;exitY=0.5;exitDx=0;exitDy=0;entryX=0.5;entryY=0;entryDx=0;entryDy=0;jumpStyle=arc;" parent="1" source="0N0rDKjKPEKVKHD4B6wy-79" target="0N0rDKjKPEKVKHD4B6wy-32" edge="1">
          <mxGeometry relative="1" as="geometry">
            <Array as="points">
              <mxPoint x="2300" y="-690" />
              <mxPoint x="2300" y="-530" />
              <mxPoint x="1840" y="-530" />
            </Array>
          </mxGeometry>
        </mxCell>
        <mxCell id="0N0rDKjKPEKVKHD4B6wy-131" style="edgeStyle=orthogonalEdgeStyle;rounded=1;orthogonalLoop=1;jettySize=auto;html=1;exitX=1;exitY=0.5;exitDx=0;exitDy=0;entryX=0;entryY=0.5;entryDx=0;entryDy=0;jumpStyle=arc;" parent="1" source="0N0rDKjKPEKVKHD4B6wy-79" target="0N0rDKjKPEKVKHD4B6wy-106" edge="1">
          <mxGeometry relative="1" as="geometry">
            <Array as="points">
              <mxPoint x="2300" y="-690" />
              <mxPoint x="2300" y="-850" />
              <mxPoint x="910" y="-850" />
              <mxPoint x="910" y="-900" />
            </Array>
          </mxGeometry>
        </mxCell>
        <mxCell id="0N0rDKjKPEKVKHD4B6wy-100" value="Ставки" style="swimlane;whiteSpace=wrap;html=1;strokeWidth=2;startSize=23;" parent="1" vertex="1">
          <mxGeometry x="669" y="-1150" width="560" height="310" as="geometry" />
        </mxCell>
        <mxCell id="0N0rDKjKPEKVKHD4B6wy-98" value="данные о заказах" style="rounded=0;whiteSpace=wrap;html=1;fillColor=#60a917;strokeColor=#2D7600;fontColor=#ffffff;" parent="0N0rDKjKPEKVKHD4B6wy-100" vertex="1">
          <mxGeometry x="28" y="50" width="120" height="60" as="geometry" />
        </mxCell>
        <mxCell id="0N0rDKjKPEKVKHD4B6wy-99" value="Менеджер" style="rounded=0;whiteSpace=wrap;html=1;fillColor=#FFFFCC;strokeColor=#d6b656;" parent="0N0rDKjKPEKVKHD4B6wy-100" vertex="1">
          <mxGeometry x="148" y="50" width="120" height="60" as="geometry" />
        </mxCell>
        <mxCell id="0N0rDKjKPEKVKHD4B6wy-97" value="ставка" style="rounded=0;whiteSpace=wrap;html=1;fillColor=#dae8fc;strokeColor=#6c8ebf;" parent="0N0rDKjKPEKVKHD4B6wy-100" vertex="1">
          <mxGeometry x="268" y="50" width="120" height="60" as="geometry" />
        </mxCell>
        <mxCell id="0N0rDKjKPEKVKHD4B6wy-105" value="сделана ставка" style="rounded=0;whiteSpace=wrap;html=1;fillColor=#f0a30a;strokeColor=#BD7000;fontColor=#ffffff;" parent="0N0rDKjKPEKVKHD4B6wy-100" vertex="1">
          <mxGeometry x="388" y="50" width="120" height="60" as="geometry" />
        </mxCell>
        <mxCell id="0N0rDKjKPEKVKHD4B6wy-106" value="ставка сыграла" style="rounded=0;whiteSpace=wrap;html=1;fillColor=#dae8fc;strokeColor=#6c8ebf;" parent="0N0rDKjKPEKVKHD4B6wy-100" vertex="1">
          <mxGeometry x="287" y="220" width="120" height="60" as="geometry" />
        </mxCell>
        <mxCell id="0N0rDKjKPEKVKHD4B6wy-107" value="ставка сыграла" style="rounded=0;whiteSpace=wrap;html=1;fillColor=#f0a30a;strokeColor=#BD7000;fontColor=#ffffff;" parent="0N0rDKjKPEKVKHD4B6wy-100" vertex="1">
          <mxGeometry x="407" y="220" width="120" height="60" as="geometry" />
        </mxCell>
        <mxCell id="0N0rDKjKPEKVKHD4B6wy-109" value="ставка не сыграла" style="rounded=0;whiteSpace=wrap;html=1;fillColor=#dae8fc;strokeColor=#6c8ebf;" parent="0N0rDKjKPEKVKHD4B6wy-100" vertex="1">
          <mxGeometry x="287" y="140" width="120" height="60" as="geometry" />
        </mxCell>
        <mxCell id="0N0rDKjKPEKVKHD4B6wy-110" value="ставка не сыграла" style="rounded=0;whiteSpace=wrap;html=1;fillColor=#f0a30a;strokeColor=#BD7000;fontColor=#ffffff;" parent="0N0rDKjKPEKVKHD4B6wy-100" vertex="1">
          <mxGeometry x="407" y="140" width="120" height="60" as="geometry" />
        </mxCell>
        <mxCell id="0N0rDKjKPEKVKHD4B6wy-132" value="дальнейшее&lt;br&gt;происходит&lt;br&gt;через тетрадку" style="rounded=0;whiteSpace=wrap;html=1;" parent="0N0rDKjKPEKVKHD4B6wy-100" vertex="1">
          <mxGeometry x="489" y="180" width="120" height="60" as="geometry" />
        </mxCell>
        <mxCell id="0N0rDKjKPEKVKHD4B6wy-120" value="Онбординг воркера и другие менеджерские забавы" style="swimlane;whiteSpace=wrap;html=1;strokeWidth=2;" parent="1" vertex="1">
          <mxGeometry x="80" y="-1420" width="1550" height="230" as="geometry" />
        </mxCell>
        <mxCell id="0N0rDKjKPEKVKHD4B6wy-1" value="Менеджер" style="rounded=0;whiteSpace=wrap;html=1;fillColor=#FFFFCC;strokeColor=#d6b656;" parent="0N0rDKjKPEKVKHD4B6wy-120" vertex="1">
          <mxGeometry x="410" y="60" width="120" height="60" as="geometry" />
        </mxCell>
        <mxCell id="0N0rDKjKPEKVKHD4B6wy-3" value="Новый Воркер" style="rounded=0;whiteSpace=wrap;html=1;fillColor=#FFFFCC;strokeColor=#d6b656;" parent="0N0rDKjKPEKVKHD4B6wy-120" vertex="1">
          <mxGeometry x="30" y="60" width="120" height="60" as="geometry" />
        </mxCell>
        <mxCell id="0N0rDKjKPEKVKHD4B6wy-8" value="Пришла новая заявка&lt;br&gt;на тест&amp;nbsp;" style="rounded=0;whiteSpace=wrap;html=1;fillColor=#f0a30a;strokeColor=#BD7000;fontColor=#ffffff;" parent="0N0rDKjKPEKVKHD4B6wy-120" vertex="1">
          <mxGeometry x="270" y="60" width="120" height="60" as="geometry" />
        </mxCell>
        <mxCell id="0N0rDKjKPEKVKHD4B6wy-9" value="Подача заявки" style="rounded=0;whiteSpace=wrap;html=1;fillColor=#dae8fc;strokeColor=#6c8ebf;" parent="0N0rDKjKPEKVKHD4B6wy-120" vertex="1">
          <mxGeometry x="150" y="60" width="120" height="60" as="geometry" />
        </mxCell>
        <mxCell id="0N0rDKjKPEKVKHD4B6wy-12" value="Назначить тесты" style="rounded=0;whiteSpace=wrap;html=1;fillColor=#dae8fc;strokeColor=#6c8ebf;" parent="0N0rDKjKPEKVKHD4B6wy-120" vertex="1">
          <mxGeometry x="530" y="60" width="120" height="60" as="geometry" />
        </mxCell>
        <mxCell id="0N0rDKjKPEKVKHD4B6wy-13" value="Набор тестов по заявке выдан" style="rounded=0;whiteSpace=wrap;html=1;fillColor=#f0a30a;strokeColor=#BD7000;fontColor=#ffffff;" parent="0N0rDKjKPEKVKHD4B6wy-120" vertex="1">
          <mxGeometry x="650" y="60" width="120" height="60" as="geometry" />
        </mxCell>
        <mxCell id="0N0rDKjKPEKVKHD4B6wy-14" value="Новый Воркер" style="rounded=0;whiteSpace=wrap;html=1;fillColor=#FFFFCC;strokeColor=#d6b656;" parent="0N0rDKjKPEKVKHD4B6wy-120" vertex="1">
          <mxGeometry x="789" y="60" width="120" height="60" as="geometry" />
        </mxCell>
        <mxCell id="0N0rDKjKPEKVKHD4B6wy-15" value="Выполнить тест" style="rounded=0;whiteSpace=wrap;html=1;fillColor=#dae8fc;strokeColor=#6c8ebf;" parent="0N0rDKjKPEKVKHD4B6wy-120" vertex="1">
          <mxGeometry x="909" y="60" width="120" height="60" as="geometry" />
        </mxCell>
        <mxCell id="0N0rDKjKPEKVKHD4B6wy-16" value="Тест выполнен" style="rounded=0;whiteSpace=wrap;html=1;fillColor=#f0a30a;strokeColor=#BD7000;fontColor=#ffffff;" parent="0N0rDKjKPEKVKHD4B6wy-120" vertex="1">
          <mxGeometry x="1029" y="60" width="120" height="60" as="geometry" />
        </mxCell>
        <mxCell id="0N0rDKjKPEKVKHD4B6wy-17" value="Менеджер" style="rounded=0;whiteSpace=wrap;html=1;fillColor=#FFFFCC;strokeColor=#d6b656;" parent="0N0rDKjKPEKVKHD4B6wy-120" vertex="1">
          <mxGeometry x="1170" y="60" width="120" height="60" as="geometry" />
        </mxCell>
        <mxCell id="0N0rDKjKPEKVKHD4B6wy-18" value="Отказ" style="rounded=0;whiteSpace=wrap;html=1;fillColor=#dae8fc;strokeColor=#6c8ebf;" parent="0N0rDKjKPEKVKHD4B6wy-120" vertex="1">
          <mxGeometry x="1290" y="30" width="120" height="60" as="geometry" />
        </mxCell>
        <mxCell id="0N0rDKjKPEKVKHD4B6wy-19" value="Уведомить об отказе" style="rounded=0;whiteSpace=wrap;html=1;fillColor=#f0a30a;strokeColor=#BD7000;fontColor=#ffffff;" parent="0N0rDKjKPEKVKHD4B6wy-120" vertex="1">
          <mxGeometry x="1410" y="30" width="120" height="60" as="geometry" />
        </mxCell>
        <mxCell id="0N0rDKjKPEKVKHD4B6wy-21" value="Аппрув" style="rounded=0;whiteSpace=wrap;html=1;fillColor=#dae8fc;strokeColor=#6c8ebf;" parent="0N0rDKjKPEKVKHD4B6wy-120" vertex="1">
          <mxGeometry x="1290" y="90" width="120" height="60" as="geometry" />
        </mxCell>
        <mxCell id="0N0rDKjKPEKVKHD4B6wy-22" value="Уведомить о принятии" style="rounded=0;whiteSpace=wrap;html=1;fillColor=#f0a30a;strokeColor=#BD7000;fontColor=#ffffff;" parent="0N0rDKjKPEKVKHD4B6wy-120" vertex="1">
          <mxGeometry x="1410" y="90" width="120" height="60" as="geometry" />
        </mxCell>
        <mxCell id="HTqRLWnz5d8zxXwgNCST-20" value="Менеджер" style="rounded=0;whiteSpace=wrap;html=1;fillColor=#FFFFCC;strokeColor=#d6b656;" parent="0N0rDKjKPEKVKHD4B6wy-120" vertex="1">
          <mxGeometry x="10" y="150" width="120" height="60" as="geometry" />
        </mxCell>
        <mxCell id="HTqRLWnz5d8zxXwgNCST-21" value="Сконфигурировать&lt;br&gt;тест" style="rounded=0;whiteSpace=wrap;html=1;fillColor=#dae8fc;strokeColor=#6c8ebf;" parent="0N0rDKjKPEKVKHD4B6wy-120" vertex="1">
          <mxGeometry x="130" y="150" width="120" height="60" as="geometry" />
        </mxCell>
        <mxCell id="HTqRLWnz5d8zxXwgNCST-22" value="Тест сконфигурирован" style="rounded=0;whiteSpace=wrap;html=1;fillColor=#f0a30a;strokeColor=#BD7000;fontColor=#ffffff;" parent="0N0rDKjKPEKVKHD4B6wy-120" vertex="1">
          <mxGeometry x="250" y="150" width="120" height="60" as="geometry" />
        </mxCell>
        <mxCell id="0N0rDKjKPEKVKHD4B6wy-126" value="" style="group" parent="1" vertex="1" connectable="0">
          <mxGeometry x="1630" y="-450" width="690" height="400" as="geometry" />
        </mxCell>
        <mxCell id="0N0rDKjKPEKVKHD4B6wy-40" value="" style="group" parent="0N0rDKjKPEKVKHD4B6wy-126" vertex="1" connectable="0">
          <mxGeometry x="150" y="90" width="240" height="60" as="geometry" />
        </mxCell>
        <mxCell id="0N0rDKjKPEKVKHD4B6wy-41" value="" style="group" parent="0N0rDKjKPEKVKHD4B6wy-40" vertex="1" connectable="0">
          <mxGeometry width="240" height="60" as="geometry" />
        </mxCell>
        <mxCell id="0N0rDKjKPEKVKHD4B6wy-32" value="Изменение балансов" style="rounded=0;whiteSpace=wrap;html=1;fillColor=#dae8fc;strokeColor=#6c8ebf;" parent="0N0rDKjKPEKVKHD4B6wy-41" vertex="1">
          <mxGeometry width="120" height="60" as="geometry" />
        </mxCell>
        <mxCell id="0N0rDKjKPEKVKHD4B6wy-34" value="Балансы обновлены" style="rounded=0;whiteSpace=wrap;html=1;fillColor=#f0a30a;strokeColor=#BD7000;fontColor=#ffffff;" parent="0N0rDKjKPEKVKHD4B6wy-41" vertex="1">
          <mxGeometry x="120" width="120" height="60" as="geometry" />
        </mxCell>
        <mxCell id="0N0rDKjKPEKVKHD4B6wy-123" value="Биллинг" style="swimlane;whiteSpace=wrap;html=1;" parent="0N0rDKjKPEKVKHD4B6wy-126" vertex="1">
          <mxGeometry width="690" height="400" as="geometry" />
        </mxCell>
        <mxCell id="HTqRLWnz5d8zxXwgNCST-4" value="здесь так же будут рассчеты скидок&lt;br&gt;для общей картины значения не имеет" style="rounded=0;whiteSpace=wrap;html=1;" parent="0N0rDKjKPEKVKHD4B6wy-123" vertex="1">
          <mxGeometry x="390" y="90" width="120" height="60" as="geometry" />
        </mxCell>
        <mxCell id="0N0rDKjKPEKVKHD4B6wy-60" value="уведомления о взаиморасчетах" style="rounded=0;whiteSpace=wrap;html=1;fillColor=#f0a30a;strokeColor=#BD7000;fontColor=#ffffff;" parent="0N0rDKjKPEKVKHD4B6wy-123" vertex="1">
          <mxGeometry x="160" y="226" width="120" height="60" as="geometry" />
        </mxCell>
        <mxCell id="0N0rDKjKPEKVKHD4B6wy-86" value="Начисления" style="rounded=0;whiteSpace=wrap;html=1;fillColor=#dae8fc;strokeColor=#6c8ebf;" parent="0N0rDKjKPEKVKHD4B6wy-123" vertex="1">
          <mxGeometry x="310" y="256" width="120" height="60" as="geometry" />
        </mxCell>
        <mxCell id="0N0rDKjKPEKVKHD4B6wy-59" value="Списания" style="rounded=0;whiteSpace=wrap;html=1;fillColor=#dae8fc;strokeColor=#6c8ebf;" parent="0N0rDKjKPEKVKHD4B6wy-123" vertex="1">
          <mxGeometry x="310" y="196" width="120" height="60" as="geometry" />
        </mxCell>
        <mxCell id="HTqRLWnz5d8zxXwgNCST-5" value="произведение&lt;br&gt;выплат" style="rounded=0;whiteSpace=wrap;html=1;" parent="0N0rDKjKPEKVKHD4B6wy-123" vertex="1">
          <mxGeometry x="520" y="190" width="120" height="60" as="geometry" />
        </mxCell>
        <mxCell id="crYb43GQfzjSQyxAvsHL-28" value="произведены балансовые операции" style="rounded=0;whiteSpace=wrap;html=1;fillColor=#f0a30a;strokeColor=#BD7000;fontColor=#ffffff;" parent="0N0rDKjKPEKVKHD4B6wy-123" vertex="1">
          <mxGeometry x="430" y="226" width="120" height="60" as="geometry" />
        </mxCell>
        <mxCell id="cdyMoCXOBgp6Qk6uq30v-9" value="крон каждую неделю, т.к. есть кейсы раз в две недели и раз в месяц" style="rounded=0;whiteSpace=wrap;html=1;" parent="0N0rDKjKPEKVKHD4B6wy-123" vertex="1">
          <mxGeometry x="40" y="286" width="120" height="76" as="geometry" />
        </mxCell>
        <mxCell id="0N0rDKjKPEKVKHD4B6wy-55" value="Крон" style="rounded=0;whiteSpace=wrap;html=1;fillColor=#ffe6cc;strokeColor=#d79b00;" parent="0N0rDKjKPEKVKHD4B6wy-126" vertex="1">
          <mxGeometry x="40" y="226" width="120" height="60" as="geometry" />
        </mxCell>
        <mxCell id="0N0rDKjKPEKVKHD4B6wy-128" value="Расходники" style="swimlane;whiteSpace=wrap;html=1;strokeWidth=2;" parent="1" vertex="1">
          <mxGeometry x="590" y="-580" width="1020" height="110" as="geometry" />
        </mxCell>
        <mxCell id="0N0rDKjKPEKVKHD4B6wy-48" value="Печенье &lt;b&gt;fur-tune&lt;/b&gt;" style="rounded=0;whiteSpace=wrap;html=1;fillColor=#ffe6cc;strokeColor=#d79b00;" parent="0N0rDKjKPEKVKHD4B6wy-128" vertex="1">
          <mxGeometry x="375.5" y="30" width="120" height="60" as="geometry" />
        </mxCell>
        <mxCell id="cdyMoCXOBgp6Qk6uq30v-8" value="" style="edgeStyle=orthogonalEdgeStyle;rounded=0;orthogonalLoop=1;jettySize=auto;html=1;" parent="0N0rDKjKPEKVKHD4B6wy-128" source="0N0rDKjKPEKVKHD4B6wy-50" target="0N0rDKjKPEKVKHD4B6wy-4" edge="1">
          <mxGeometry relative="1" as="geometry" />
        </mxCell>
        <mxCell id="0N0rDKjKPEKVKHD4B6wy-50" value="Печенье пришло" style="rounded=0;whiteSpace=wrap;html=1;fillColor=#f0a30a;strokeColor=#BD7000;fontColor=#ffffff;" parent="0N0rDKjKPEKVKHD4B6wy-128" vertex="1">
          <mxGeometry x="495.5" y="30" width="120" height="60" as="geometry" />
        </mxCell>
        <mxCell id="0N0rDKjKPEKVKHD4B6wy-118" value="Запросить печенье" style="rounded=0;whiteSpace=wrap;html=1;fillColor=#dae8fc;strokeColor=#6c8ebf;" parent="0N0rDKjKPEKVKHD4B6wy-128" vertex="1">
          <mxGeometry x="255.5" y="30" width="120" height="60" as="geometry" />
        </mxCell>
        <mxCell id="0N0rDKjKPEKVKHD4B6wy-4" value="Сотрудник О.Р." style="rounded=0;whiteSpace=wrap;html=1;fillColor=#FFFFCC;strokeColor=#d6b656;" parent="0N0rDKjKPEKVKHD4B6wy-128" vertex="1">
          <mxGeometry x="644.5" y="30" width="120" height="60" as="geometry" />
        </mxCell>
        <mxCell id="0N0rDKjKPEKVKHD4B6wy-46" value="Укомплектовать&lt;br&gt;расходники" style="rounded=0;whiteSpace=wrap;html=1;fillColor=#dae8fc;strokeColor=#6c8ebf;" parent="0N0rDKjKPEKVKHD4B6wy-128" vertex="1">
          <mxGeometry x="764.5" y="30" width="120" height="60" as="geometry" />
        </mxCell>
        <mxCell id="0N0rDKjKPEKVKHD4B6wy-47" value="Расходники готовы" style="rounded=0;whiteSpace=wrap;html=1;fillColor=#f0a30a;strokeColor=#BD7000;fontColor=#ffffff;" parent="0N0rDKjKPEKVKHD4B6wy-128" vertex="1">
          <mxGeometry x="884.5" y="30" width="120" height="60" as="geometry" />
        </mxCell>
        <mxCell id="0N0rDKjKPEKVKHD4B6wy-127" value="Сотрудник О.Р." style="rounded=0;whiteSpace=wrap;html=1;fillColor=#FFFFCC;strokeColor=#d6b656;" parent="0N0rDKjKPEKVKHD4B6wy-128" vertex="1">
          <mxGeometry x="135.5" y="30" width="120" height="60" as="geometry" />
        </mxCell>
        <mxCell id="crYb43GQfzjSQyxAvsHL-23" value="данные о заказах" style="rounded=0;whiteSpace=wrap;html=1;fillColor=#60a917;strokeColor=#2D7600;fontColor=#ffffff;" parent="0N0rDKjKPEKVKHD4B6wy-128" vertex="1">
          <mxGeometry x="15.5" y="30" width="120" height="60" as="geometry" />
        </mxCell>
        <mxCell id="0N0rDKjKPEKVKHD4B6wy-154" value="Оказание услуг" style="swimlane;whiteSpace=wrap;html=1;strokeWidth=2;" parent="1" vertex="1">
          <mxGeometry x="80" y="-830" width="2170" height="240" as="geometry" />
        </mxCell>
        <mxCell id="0N0rDKjKPEKVKHD4B6wy-2" value="Тестировщик" style="rounded=0;whiteSpace=wrap;html=1;fillColor=#FFFFCC;strokeColor=#d6b656;" parent="0N0rDKjKPEKVKHD4B6wy-154" vertex="1">
          <mxGeometry x="10" y="40" width="120" height="60" as="geometry" />
        </mxCell>
        <mxCell id="0N0rDKjKPEKVKHD4B6wy-26" value="Новая заявка" style="rounded=0;whiteSpace=wrap;html=1;fillColor=#dae8fc;strokeColor=#6c8ebf;" parent="0N0rDKjKPEKVKHD4B6wy-154" vertex="1">
          <mxGeometry x="130" y="40" width="120" height="60" as="geometry" />
        </mxCell>
        <mxCell id="0N0rDKjKPEKVKHD4B6wy-27" value="Создан новый заказ" style="rounded=0;whiteSpace=wrap;html=1;fillColor=#f0a30a;strokeColor=#BD7000;fontColor=#ffffff;" parent="0N0rDKjKPEKVKHD4B6wy-154" vertex="1">
          <mxGeometry x="250" y="40" width="120" height="60" as="geometry" />
        </mxCell>
        <mxCell id="0N0rDKjKPEKVKHD4B6wy-29" value="Провести матчинг назначить воркера" style="rounded=0;whiteSpace=wrap;html=1;fillColor=#dae8fc;strokeColor=#6c8ebf;" parent="0N0rDKjKPEKVKHD4B6wy-154" vertex="1">
          <mxGeometry x="410" y="40" width="120" height="60" as="geometry" />
        </mxCell>
        <mxCell id="0N0rDKjKPEKVKHD4B6wy-31" value="" style="edgeStyle=orthogonalEdgeStyle;rounded=0;orthogonalLoop=1;jettySize=auto;html=1;" parent="0N0rDKjKPEKVKHD4B6wy-154" source="0N0rDKjKPEKVKHD4B6wy-27" target="0N0rDKjKPEKVKHD4B6wy-29" edge="1">
          <mxGeometry relative="1" as="geometry" />
        </mxCell>
        <mxCell id="0N0rDKjKPEKVKHD4B6wy-30" value="Заказу назначен воркер" style="rounded=0;whiteSpace=wrap;html=1;fillColor=#f0a30a;strokeColor=#BD7000;fontColor=#ffffff;" parent="0N0rDKjKPEKVKHD4B6wy-154" vertex="1">
          <mxGeometry x="530" y="40" width="120" height="60" as="geometry" />
        </mxCell>
        <mxCell id="cdyMoCXOBgp6Qk6uq30v-2" value="Менеджер" style="rounded=0;whiteSpace=wrap;html=1;fillColor=#FFFFCC;strokeColor=#d6b656;" parent="0N0rDKjKPEKVKHD4B6wy-154" vertex="1">
          <mxGeometry x="10" y="130" width="120" height="60" as="geometry" />
        </mxCell>
        <mxCell id="cdyMoCXOBgp6Qk6uq30v-3" value="Сконфигурировать&lt;br&gt;услугу" style="rounded=0;whiteSpace=wrap;html=1;fillColor=#dae8fc;strokeColor=#6c8ebf;" parent="0N0rDKjKPEKVKHD4B6wy-154" vertex="1">
          <mxGeometry x="130" y="130" width="120" height="60" as="geometry" />
        </mxCell>
        <mxCell id="cdyMoCXOBgp6Qk6uq30v-4" value="Сконфигурирована&lt;br&gt;услуга" style="rounded=0;whiteSpace=wrap;html=1;fillColor=#f0a30a;strokeColor=#BD7000;fontColor=#ffffff;" parent="0N0rDKjKPEKVKHD4B6wy-154" vertex="1">
          <mxGeometry x="250" y="130" width="120" height="60" as="geometry" />
        </mxCell>
        <mxCell id="0N0rDKjKPEKVKHD4B6wy-65" value="Не явился, или провалил" style="rounded=0;whiteSpace=wrap;html=1;fillColor=#dae8fc;strokeColor=#6c8ebf;" parent="0N0rDKjKPEKVKHD4B6wy-154" vertex="1">
          <mxGeometry x="1420" y="40" width="120" height="60" as="geometry" />
        </mxCell>
        <mxCell id="0N0rDKjKPEKVKHD4B6wy-66" value="Пришел на заказ, отметился" style="rounded=0;whiteSpace=wrap;html=1;fillColor=#dae8fc;strokeColor=#6c8ebf;" parent="0N0rDKjKPEKVKHD4B6wy-154" vertex="1">
          <mxGeometry x="1420" y="100" width="120" height="60" as="geometry" />
        </mxCell>
        <mxCell id="0N0rDKjKPEKVKHD4B6wy-71" value="Заказ отменен" style="rounded=0;whiteSpace=wrap;html=1;fillColor=#f0a30a;strokeColor=#BD7000;fontColor=#ffffff;" parent="0N0rDKjKPEKVKHD4B6wy-154" vertex="1">
          <mxGeometry x="1540" y="40" width="120" height="60" as="geometry" />
        </mxCell>
        <mxCell id="0N0rDKjKPEKVKHD4B6wy-72" value="Заказ в работе" style="rounded=0;whiteSpace=wrap;html=1;fillColor=#f0a30a;strokeColor=#BD7000;fontColor=#ffffff;" parent="0N0rDKjKPEKVKHD4B6wy-154" vertex="1">
          <mxGeometry x="1540" y="100" width="120" height="60" as="geometry" />
        </mxCell>
        <mxCell id="0N0rDKjKPEKVKHD4B6wy-77" value="Воркер" style="rounded=0;whiteSpace=wrap;html=1;fillColor=#FFFFCC;strokeColor=#d6b656;" parent="0N0rDKjKPEKVKHD4B6wy-154" vertex="1">
          <mxGeometry x="1673" y="40" width="120" height="60" as="geometry" />
        </mxCell>
        <mxCell id="0N0rDKjKPEKVKHD4B6wy-78" value="Выполнение и приемка заказа" style="rounded=0;whiteSpace=wrap;html=1;fillColor=#dae8fc;strokeColor=#6c8ebf;" parent="0N0rDKjKPEKVKHD4B6wy-154" vertex="1">
          <mxGeometry x="1793" y="40" width="120" height="60" as="geometry" />
        </mxCell>
        <mxCell id="0N0rDKjKPEKVKHD4B6wy-79" value="Заказ принят" style="rounded=0;whiteSpace=wrap;html=1;fillColor=#f0a30a;strokeColor=#BD7000;fontColor=#ffffff;" parent="0N0rDKjKPEKVKHD4B6wy-154" vertex="1">
          <mxGeometry x="2020" y="110" width="120" height="60" as="geometry" />
        </mxCell>
        <mxCell id="0N0rDKjKPEKVKHD4B6wy-63" value="Воркер" style="rounded=0;whiteSpace=wrap;html=1;fillColor=#FFFFCC;strokeColor=#d6b656;" parent="0N0rDKjKPEKVKHD4B6wy-154" vertex="1">
          <mxGeometry x="1300" y="70" width="120" height="60" as="geometry" />
        </mxCell>
        <mxCell id="16uS1jDzF8tA2ArOGYMF-16" value="Заказ выполнен" style="rounded=0;whiteSpace=wrap;html=1;fillColor=#f0a30a;strokeColor=#BD7000;fontColor=#ffffff;" vertex="1" parent="0N0rDKjKPEKVKHD4B6wy-154">
          <mxGeometry x="1913" y="40" width="120" height="60" as="geometry" />
        </mxCell>
        <mxCell id="16uS1jDzF8tA2ArOGYMF-17" value="Тестировщик" style="rounded=0;whiteSpace=wrap;html=1;fillColor=#FFFFCC;strokeColor=#d6b656;" vertex="1" parent="0N0rDKjKPEKVKHD4B6wy-154">
          <mxGeometry x="1780" y="140" width="120" height="60" as="geometry" />
        </mxCell>
        <mxCell id="16uS1jDzF8tA2ArOGYMF-18" value="Отметить заказ" style="rounded=0;whiteSpace=wrap;html=1;fillColor=#dae8fc;strokeColor=#6c8ebf;" vertex="1" parent="0N0rDKjKPEKVKHD4B6wy-154">
          <mxGeometry x="1900" y="140" width="120" height="60" as="geometry" />
        </mxCell>
        <mxCell id="16uS1jDzF8tA2ArOGYMF-13" value="Заказ не принят" style="rounded=0;whiteSpace=wrap;html=1;fillColor=#f0a30a;strokeColor=#BD7000;fontColor=#ffffff;" vertex="1" parent="0N0rDKjKPEKVKHD4B6wy-154">
          <mxGeometry x="2020" y="170" width="120" height="60" as="geometry" />
        </mxCell>
        <mxCell id="HTqRLWnz5d8zxXwgNCST-27" value="Контроль качества" style="swimlane;whiteSpace=wrap;html=1;" parent="1" vertex="1">
          <mxGeometry x="1530" y="-1120" width="520" height="200" as="geometry" />
        </mxCell>
        <mxCell id="HTqRLWnz5d8zxXwgNCST-16" value="Менеджер" style="rounded=0;whiteSpace=wrap;html=1;fillColor=#FFFFCC;strokeColor=#d6b656;" parent="HTqRLWnz5d8zxXwgNCST-27" vertex="1">
          <mxGeometry x="130" y="40" width="120" height="60" as="geometry" />
        </mxCell>
        <mxCell id="HTqRLWnz5d8zxXwgNCST-17" value="Проверка качества" style="rounded=0;whiteSpace=wrap;html=1;fillColor=#dae8fc;strokeColor=#6c8ebf;" parent="HTqRLWnz5d8zxXwgNCST-27" vertex="1">
          <mxGeometry x="250" y="40" width="120" height="60" as="geometry" />
        </mxCell>
        <mxCell id="HTqRLWnz5d8zxXwgNCST-18" value="Появился результат проверки качества" style="rounded=0;whiteSpace=wrap;html=1;fillColor=#f0a30a;strokeColor=#BD7000;fontColor=#ffffff;" parent="HTqRLWnz5d8zxXwgNCST-27" vertex="1">
          <mxGeometry x="370" y="40" width="120" height="60" as="geometry" />
        </mxCell>
        <mxCell id="HTqRLWnz5d8zxXwgNCST-19" value="данные о заказах" style="rounded=0;whiteSpace=wrap;html=1;fillColor=#60a917;strokeColor=#2D7600;fontColor=#ffffff;" parent="HTqRLWnz5d8zxXwgNCST-27" vertex="1">
          <mxGeometry x="10" y="40" width="120" height="60" as="geometry" />
        </mxCell>
        <mxCell id="cdyMoCXOBgp6Qk6uq30v-5" value="Менеджер" style="rounded=0;whiteSpace=wrap;html=1;fillColor=#FFFFCC;strokeColor=#d6b656;" parent="HTqRLWnz5d8zxXwgNCST-27" vertex="1">
          <mxGeometry x="10" y="120" width="120" height="60" as="geometry" />
        </mxCell>
        <mxCell id="cdyMoCXOBgp6Qk6uq30v-6" value="Начислить средства воркеру" style="rounded=0;whiteSpace=wrap;html=1;fillColor=#dae8fc;strokeColor=#6c8ebf;" parent="HTqRLWnz5d8zxXwgNCST-27" vertex="1">
          <mxGeometry x="130" y="120" width="120" height="60" as="geometry" />
        </mxCell>
        <mxCell id="cdyMoCXOBgp6Qk6uq30v-7" value="Начислены средства воркеру" style="rounded=0;whiteSpace=wrap;html=1;fillColor=#f0a30a;strokeColor=#BD7000;fontColor=#ffffff;" parent="HTqRLWnz5d8zxXwgNCST-27" vertex="1">
          <mxGeometry x="250" y="120" width="120" height="60" as="geometry" />
        </mxCell>
        <mxCell id="16uS1jDzF8tA2ArOGYMF-11" value="вот это надо в отдельный контекст, видимо..." style="rounded=0;whiteSpace=wrap;html=1;" vertex="1" parent="HTqRLWnz5d8zxXwgNCST-27">
          <mxGeometry x="370" y="140" width="120" height="60" as="geometry" />
        </mxCell>
        <mxCell id="crYb43GQfzjSQyxAvsHL-27" style="edgeStyle=orthogonalEdgeStyle;rounded=1;orthogonalLoop=1;jettySize=auto;html=1;exitX=1;exitY=0.5;exitDx=0;exitDy=0;entryX=0;entryY=0.5;entryDx=0;entryDy=0;" parent="1" source="0N0rDKjKPEKVKHD4B6wy-47" target="0N0rDKjKPEKVKHD4B6wy-63" edge="1">
          <mxGeometry relative="1" as="geometry">
            <mxPoint x="1320" y="-660" as="targetPoint" />
            <Array as="points">
              <mxPoint x="1630" y="-520" />
              <mxPoint x="1630" y="-640" />
              <mxPoint x="1360" y="-640" />
              <mxPoint x="1360" y="-730" />
            </Array>
          </mxGeometry>
        </mxCell>
        <mxCell id="16uS1jDzF8tA2ArOGYMF-1" value="Тестировщик" style="rounded=0;whiteSpace=wrap;html=1;fillColor=#FFFFCC;strokeColor=#d6b656;" vertex="1" parent="1">
          <mxGeometry x="30" y="-1574" width="120" height="60" as="geometry" />
        </mxCell>
        <mxCell id="16uS1jDzF8tA2ArOGYMF-4" value="Менеджер" style="rounded=0;whiteSpace=wrap;html=1;fillColor=#FFFFCC;strokeColor=#d6b656;" vertex="1" parent="1">
          <mxGeometry x="30" y="-1514" width="120" height="60" as="geometry" />
        </mxCell>
        <mxCell id="16uS1jDzF8tA2ArOGYMF-7" value="Менеджер" style="rounded=0;whiteSpace=wrap;html=1;fillColor=#FFFFCC;strokeColor=#d6b656;" vertex="1" parent="1">
          <mxGeometry x="30" y="-1630" width="120" height="60" as="geometry" />
        </mxCell>
        <mxCell id="16uS1jDzF8tA2ArOGYMF-8" value="Зайти в систему" style="rounded=0;whiteSpace=wrap;html=1;fillColor=#dae8fc;strokeColor=#6c8ebf;" vertex="1" parent="1">
          <mxGeometry x="150" y="-1574" width="120" height="60" as="geometry" />
        </mxCell>
        <mxCell id="16uS1jDzF8tA2ArOGYMF-9" value="Зашел в систему" style="rounded=0;whiteSpace=wrap;html=1;fillColor=#f0a30a;strokeColor=#BD7000;fontColor=#ffffff;" vertex="1" parent="1">
          <mxGeometry x="390" y="-1574" width="120" height="60" as="geometry" />
        </mxCell>
        <mxCell id="16uS1jDzF8tA2ArOGYMF-12" value="Учетная система&lt;br&gt;HappyCatBox" style="rounded=0;whiteSpace=wrap;html=1;fillColor=#ffe6cc;strokeColor=#d79b00;" vertex="1" parent="1">
          <mxGeometry x="270" y="-1574" width="120" height="60" as="geometry" />
        </mxCell>
      </root>
    </mxGraphModel>
  </diagram>
</mxfile>
